<svg width="40" height="40" viewBox="0 0 40 40" fill="none" xmlns="http://www.w3.org/2000/svg">
<g clip-path="url(#clip0_717_13288)">
<path d="M20 40C31.0457 40 40 31.0457 40 20C40 8.95431 31.0457 0 20 0C8.95431 0 0 8.95431 0 20C0 31.0457 8.95431 40 20 40Z" fill="#111111"/>
<g clip-path="url(#clip1_717_13288)">
<path d="M20 11.8019C22.6703 11.8019 22.9862 11.8122 24.0407 11.86C25.0155 11.9045 25.5452 12.0673 25.8974 12.2041C26.3642 12.3853 26.6974 12.6024 27.0475 12.952C27.3976 13.302 27.6141 13.6353 27.7954 14.102C27.9322 14.4543 28.095 14.984 28.1395 15.9588C28.1878 17.0133 28.1976 17.3297 28.1976 19.9995C28.1976 22.6692 28.1872 22.9856 28.1395 24.0402C28.095 25.0149 27.9322 25.5446 27.7954 25.8969C27.6141 26.3636 27.397 26.6969 27.0475 27.0469C26.6974 27.397 26.3642 27.6136 25.8974 27.7948C25.5452 27.9316 25.0155 28.0944 24.0407 28.1389C22.9862 28.1872 22.6703 28.197 20 28.197C17.3297 28.197 17.0133 28.1867 15.9593 28.1389C14.9845 28.0944 14.4548 27.9316 14.1026 27.7948C13.6358 27.6136 13.3026 27.3965 12.9525 27.0469C12.6024 26.6969 12.3859 26.3636 12.2046 25.8969C12.0678 25.5446 11.905 25.0149 11.8605 24.0402C11.8122 22.9856 11.8024 22.6692 11.8024 19.9995C11.8024 17.3297 11.8128 17.0133 11.8605 15.9588C11.905 14.984 12.0678 14.4543 12.2046 14.102C12.3859 13.6353 12.603 13.302 12.9525 12.952C13.302 12.6019 13.6358 12.3853 14.1026 12.2041C14.4548 12.0673 14.9845 11.9045 15.9593 11.86C17.0138 11.8117 17.3303 11.8019 20 11.8019ZM20 10C17.2841 10 16.9438 10.0114 15.8768 10.0602C14.8125 10.1085 14.0852 10.2779 13.4491 10.5248C12.7913 10.7805 12.2339 11.1224 11.6782 11.6782C11.1224 12.2339 10.7805 12.7919 10.5248 13.4491C10.2779 14.0852 10.1085 14.8119 10.0602 15.8768C10.0114 16.9433 10 17.2841 10 20C10 22.7159 10.0114 23.0562 10.0602 24.1232C10.1085 25.1875 10.2779 25.9148 10.5248 26.5509C10.7805 27.2087 11.1224 27.7661 11.6782 28.3218C12.2339 28.8776 12.7919 29.2195 13.4491 29.4752C14.0852 29.7221 14.8119 29.8915 15.8768 29.9398C16.9433 29.9886 17.2841 30 20 30C22.7159 30 23.0562 29.9886 24.1232 29.9398C25.1875 29.8915 25.9148 29.7221 26.5509 29.4752C27.2087 29.2195 27.7661 28.8776 28.3218 28.3218C28.8776 27.7661 29.2195 27.2081 29.4752 26.5509C29.7221 25.9148 29.8915 25.1881 29.9398 24.1232C29.9886 23.0567 30 22.7159 30 20C30 17.2841 29.9886 16.9438 29.9398 15.8768C29.8915 14.8125 29.7221 14.0852 29.4752 13.4491C29.2195 12.7913 28.8776 12.2339 28.3218 11.6782C27.7661 11.1224 27.2081 10.7805 26.5509 10.5248C25.9148 10.2779 25.1881 10.1085 24.1232 10.0602C23.0567 10.0114 22.7159 10 20 10Z" fill="white"/>
<path d="M20 14.8651C17.1642 14.8651 14.8646 17.1642 14.8646 20.0005C14.8646 22.8369 17.1636 25.136 20 25.136C22.8364 25.136 25.1354 22.8369 25.1354 20.0005C25.1354 17.1642 22.8364 14.8651 20 14.8651ZM20 23.3335C18.159 23.3335 16.6665 21.841 16.6665 20C16.6665 18.159 18.159 16.6665 20 16.6665C21.841 16.6665 23.3335 18.159 23.3335 20C23.3335 21.841 21.841 23.3335 20 23.3335Z" fill="white"/>
<path d="M25.3384 15.8621C26.0011 15.8621 26.5384 15.3249 26.5384 14.6621C26.5384 13.9994 26.0011 13.4621 25.3384 13.4621C24.6757 13.4621 24.1384 13.9994 24.1384 14.6621C24.1384 15.3249 24.6757 15.8621 25.3384 15.8621Z" fill="white"/>
</g>
</g>
<defs>
<clipPath id="clip0_717_13288">
<rect width="40" height="40" fill="white"/>
</clipPath>
<clipPath id="clip1_717_13288">
<rect width="20" height="20" fill="white" transform="translate(10 10)"/>
</clipPath>
</defs>
</svg>
