<svg width="40" height="40" viewBox="0 0 40 40" fill="none" xmlns="http://www.w3.org/2000/svg">
<g clip-path="url(#clip0_1891_47370)">
<path d="M20 40C31.0457 40 40 31.0457 40 20C40 8.95431 31.0457 0 20 0C8.95431 0 0 8.95431 0 20C0 31.0457 8.95431 40 20 40Z" fill="#111111"/>
<path d="M30.5402 14.4984C30.2872 13.515 29.5418 12.7405 28.5953 12.4776C26.8795 12 19.9999 12 19.9999 12C19.9999 12 13.1204 12 11.4047 12.4776C10.4582 12.7405 9.7127 13.515 9.45973 14.4984C9 16.2809 9 19.9999 9 19.9999C9 19.9999 9 23.7191 9.45973 25.5015C9.7127 26.4848 10.4582 27.2595 11.4047 27.5222C13.1204 28 19.9999 28 19.9999 28C19.9999 28 26.8795 28 28.5953 27.5222C29.5418 27.2595 30.2872 26.4848 30.5402 25.5015C31 23.7191 31 19.9999 31 19.9999C31 19.9999 31 16.2809 30.5402 14.4984Z" fill="white"/>
<path d="M17.8008 23.4277L23.5164 19.9992L17.8008 16.5706V23.4277Z" fill="#111111"/>
</g>
<defs>
<clipPath id="clip0_1891_47370">
<rect width="40" height="40" fill="white"/>
</clipPath>
</defs>
</svg>
