<svg width="40" height="40" viewBox="0 0 40 40" fill="none" xmlns="http://www.w3.org/2000/svg">
<g clip-path="url(#clip0_1891_47379)">
<path d="M20 40C31.0457 40 40 31.0457 40 20C40 8.95431 31.0457 0 20 0C8.95431 0 0 8.95431 0 20C0 31.0457 8.95431 40 20 40Z" fill="#111111"/>
<g clip-path="url(#clip1_1891_47379)">
<path d="M10.3906 23.9466C10.3906 26.57 13.8089 28.696 18.0234 28.696C22.2379 28.696 25.6562 26.57 25.6562 23.9466C25.6562 21.3233 22.2379 19.1973 18.0234 19.1973C13.8089 19.1973 10.3906 21.3233 10.3906 23.9466Z" fill="#111111"/>
<path d="M18.2015 28.3105C14.4691 28.6804 11.2468 26.9926 11.0041 24.5464C10.7616 22.0972 13.592 19.8158 17.3212 19.4458C21.0537 19.076 24.276 20.7637 24.5155 23.2099C24.7612 25.6592 21.9308 27.9437 18.2015 28.3105ZM25.6632 20.1825C25.3459 20.0861 25.1282 20.024 25.2931 19.6075C25.6539 18.703 25.6912 17.9228 25.2993 17.3634C24.5683 16.319 22.5653 16.3749 20.2699 17.3354C20.2699 17.3354 19.5482 17.6493 19.7349 17.0805C20.0863 15.946 20.0335 14.998 19.4861 14.4478C18.2419 13.2015 14.9294 14.4944 12.0897 17.3323C9.9653 19.4552 8.73047 21.7086 8.73047 23.6575C8.73047 27.3811 13.5111 29.6471 18.1859 29.6471C24.3165 29.6471 28.3941 26.0882 28.3941 23.2628C28.3972 21.5532 26.9571 20.5835 25.6632 20.1825Z" fill="white"/>
<path d="M29.7363 13.3662C28.2558 11.725 26.0723 11.1003 24.0568 11.5292C23.5902 11.6287 23.2948 12.0887 23.3943 12.5518C23.4938 13.0181 23.951 13.3134 24.4176 13.2139C25.8514 12.9093 27.4035 13.3538 28.4548 14.5193C29.5061 15.6849 29.7923 17.2733 29.3413 18.6657C29.1951 19.1195 29.4439 19.6044 29.898 19.7505C30.3521 19.8966 30.8373 19.6479 30.9835 19.1972V19.1941C31.6181 17.239 31.2168 15.0042 29.7363 13.3662Z" fill="white"/>
<path d="M27.4628 15.4176C26.7412 14.6189 25.6774 14.3142 24.6976 14.5256C24.2964 14.6095 24.0414 15.0074 24.1254 15.4084C24.2124 15.8093 24.6074 16.0642 25.0056 15.9771C25.4846 15.8746 26.0071 16.0238 26.3586 16.4123C26.7101 16.8039 26.8065 17.3354 26.6541 17.8016C26.5297 18.1902 26.7412 18.6098 27.133 18.7372C27.525 18.8616 27.9417 18.6502 28.0693 18.2586C28.3772 17.3043 28.1843 16.2164 27.4628 15.4176Z" fill="white"/>
<path d="M18.4086 23.8782C18.278 24.102 17.9887 24.2076 17.7648 24.1144C17.5408 24.0243 17.4723 23.7725 17.5999 23.5549C17.7305 23.3374 18.0073 23.2316 18.2282 23.3187C18.4521 23.3995 18.533 23.6513 18.4086 23.8782ZM17.2173 25.4012C16.8565 25.9762 16.0821 26.228 15.5004 25.9638C14.9281 25.7027 14.757 25.0345 15.1178 24.4719C15.4755 23.9123 16.222 23.6637 16.8006 23.9062C17.3853 24.1579 17.5719 24.82 17.2173 25.4012ZM18.5735 21.3294C16.7974 20.8663 14.7913 21.7522 14.0199 23.3156C13.233 24.9101 13.995 26.6818 15.7866 27.2599C17.6465 27.8598 19.8362 26.9398 20.5983 25.221C21.351 23.5363 20.4116 21.805 18.5735 21.3294Z" fill="white"/>
</g>
</g>
<defs>
<clipPath id="clip0_1891_47379">
<rect width="40" height="40" fill="white"/>
</clipPath>
<clipPath id="clip1_1891_47379">
<rect width="24" height="19" fill="white" transform="translate(8 11)"/>
</clipPath>
</defs>
</svg>
