<svg width="40" height="40" viewBox="0 0 40 40" fill="none" xmlns="http://www.w3.org/2000/svg">
<g clip-path="url(#clip0_1220_45005)">
<path d="M20 40C31.0457 40 40 31.0457 40 20C40 8.9543 31.0457 0 20 0C8.9543 0 0 8.9543 0 20C0 31.0457 8.9543 40 20 40Z" fill="#111111"/>
<path d="M28.42 12.5562C27.9643 12.5562 27.5083 12.5681 27.0531 12.553C26.6031 12.5382 26.3892 12.7295 26.4013 13.2017C26.4377 14.6172 26.4026 16.0311 26.1987 17.4336C26.0151 18.696 25.9063 19.9784 25.41 21.171C24.9798 22.2051 24.5061 23.2023 23.4355 23.7314C22.6426 24.123 21.8673 23.9111 21.6649 23.1745C21.5335 22.6962 21.4745 22.1992 21.5514 21.6922C21.6412 21.102 21.7263 20.5058 21.7772 19.9153C21.9729 17.646 22.2627 15.3894 22.5504 13.1319C22.6015 12.7298 22.4481 12.5646 22.0822 12.5632C21.0245 12.5595 19.9665 12.5606 18.9088 12.5624C18.6296 12.563 18.4431 12.684 18.4028 12.9894C18.2379 14.2421 18.0313 15.4907 17.9143 16.748C17.7687 18.3158 17.4894 19.8474 16.8964 21.3014C16.4573 22.3779 15.868 23.3457 14.7338 23.8149C14.0987 24.0777 13.4195 23.8588 13.2736 23.2764C13.1782 22.8956 13.1205 22.4948 13.1577 22.0916C13.3084 20.4514 13.5924 18.8316 13.8479 17.2067C13.9812 16.3585 14.1701 15.5142 14.0955 14.6374C14.0044 13.5658 13.2309 12.1811 11.9899 12.0442C10.3391 11.8617 8.83228 12.2565 7.37994 13.0077C6.99716 13.2055 6.9147 13.4718 7.08278 13.8634C7.35754 14.5032 7.62098 15.1484 7.88073 15.7947C8.0035 16.0998 8.2124 16.1505 8.50983 16.1041C9.73535 15.913 9.97376 16.1435 9.89078 17.4029C9.88419 17.5024 9.87023 17.6015 9.85495 17.6999C9.61917 19.21 9.34519 20.7155 9.15894 22.2321C9.02485 23.3228 9.04514 24.4294 9.36548 25.4969C9.5541 26.1257 9.8776 26.7098 10.3668 27.128C11.4725 28.0732 12.7915 28.1411 14.1092 27.8096C15.4109 27.4819 16.5416 26.8089 17.3609 25.6635C17.629 25.2886 17.7655 25.328 17.9631 25.7473C18.3406 26.5489 18.8438 27.2164 19.6941 27.5498C21.4971 28.2568 23.3043 28.0897 25.0075 27.3375C27.3576 26.2993 28.7075 24.2866 29.5526 21.8838C29.6348 21.6502 29.6732 21.3998 29.7633 21.1699C29.8771 20.8794 30.0871 20.7654 30.3208 21.0289C30.6153 21.3613 31.0083 21.5265 31.3671 21.7488C31.8142 22.0261 32.0668 21.9437 32.2302 21.4478C32.4894 20.6608 32.7152 19.8625 32.9612 19.0709C33.0445 18.803 32.9984 18.602 32.7776 18.4106C31.5052 17.3086 30.8548 15.8438 30.4683 14.2256C30.3858 13.8801 30.4061 13.5305 30.3753 13.1834C30.3371 12.7492 30.154 12.5182 29.6893 12.5506C29.2681 12.58 28.8434 12.5568 28.4203 12.556L28.42 12.5562Z" fill="white"/>
</g>
<defs>
<clipPath id="clip0_1220_45005">
<rect width="40" height="40" fill="white"/>
</clipPath>
</defs>
</svg>
