<svg width="40" height="40" viewBox="0 0 40 40" fill="none" xmlns="http://www.w3.org/2000/svg">
<g clip-path="url(#clip0_2286_119178)">
<path d="M20 40C31.0457 40 40 31.0457 40 20C40 8.9543 31.0457 0 20 0C8.9543 0 0 8.9543 0 20C0 31.0457 8.9543 40 20 40Z" fill="#111111"/>
<path d="M12.7845 16.228H16.7865L17.12 14.343H10.9865L9.29 24H11.4215L12.074 20.23H15.7715L16.105 18.3595H12.4075L12.7845 16.228ZM22.2058 24L23.3803 17.243C22.3943 16.9385 21.4228 16.808 20.6833 16.808C17.8993 16.808 17.2323 18.055 16.9423 19.737L16.6088 21.6365C16.3333 23.217 16.6378 24.145 18.1748 24.145C19.1898 24.145 19.9293 23.768 20.4223 23.391L20.4803 24H22.2058ZM18.9868 19.7515C19.1173 19.07 19.2478 18.548 20.3063 18.548C20.5238 18.548 20.8283 18.5625 21.1038 18.6205L20.5673 21.68C20.1033 22.0715 19.5378 22.376 19.0158 22.376C18.6533 22.376 18.5663 22.231 18.6243 21.854L18.9868 19.7515ZM27.8367 24H29.8812L30.7512 19.041C30.8092 18.6785 30.8237 18.4755 30.8237 18.229C30.8237 17.33 30.4757 16.7935 29.5332 16.7935C28.7212 16.7935 27.8512 17.069 26.7492 17.591L26.7637 16.808L24.9657 17.1125L23.7622 24H25.8067L26.6042 19.447C27.1552 19.157 28.0542 18.78 28.4312 18.78C28.6342 18.78 28.7067 18.838 28.7067 18.983C28.7067 19.041 28.6922 19.1135 28.6777 19.2005L27.8367 24Z" fill="white"/>
</g>
<defs>
<clipPath id="clip0_2286_119178">
<rect width="40" height="40" fill="white"/>
</clipPath>
</defs>
</svg>
