<svg width="40" height="40" viewBox="0 0 40 40" fill="none" xmlns="http://www.w3.org/2000/svg">
<g clip-path="url(#clip0_1220_45012)">
<path d="M20 40C31.0457 40 40 31.0457 40 20C40 8.9543 31.0457 0 20 0C8.9543 0 0 8.9543 0 20C0 31.0457 8.9543 40 20 40Z" fill="#111111"/>
<g clip-path="url(#clip1_1220_45012)">
<path d="M24.7379 23.2182V24.2959C24.7538 24.118 24.7621 23.9366 24.7621 23.7546C24.7621 23.5726 24.7548 23.3952 24.7379 23.2182ZM21.2416 24.1466V23.7546C21.2416 23.8873 21.2321 24.0182 21.2143 24.1466H21.2416Z" fill="white"/>
<path d="M29 14.9065V18.5847C28.978 18.5857 28.9557 18.5857 28.9338 18.5857C27.3453 18.5857 25.8865 18.0453 24.7379 17.1433V24.296C24.7379 24.3 24.7379 24.3031 24.7369 24.3072C24.4519 27.4974 21.7149 30 18.3817 30C14.8568 30 12 27.2031 12 23.7546C12 20.3061 14.8568 17.5089 18.3817 17.5089V20.9543C16.8019 20.9543 15.5208 22.2081 15.5208 23.7543C15.5208 25.3004 16.8019 26.5543 18.3817 26.5543C19.8249 26.5543 21.0188 25.5061 21.2143 24.1464H21.2417V10H24.7379V10.1957C24.7379 12.622 26.5986 14.6235 29 14.9065Z" fill="white"/>
<path d="M24.7379 24.296V24.3072H24.7369C24.7379 24.3031 24.7379 24.3 24.7379 24.296Z" fill="white"/>
<path d="M21.2411 23.7546V24.1466H21.2143C21.2317 24.0179 21.2411 23.8873 21.2411 23.7546Z" fill="white"/>
</g>
</g>
<defs>
<clipPath id="clip0_1220_45012">
<rect width="40" height="40" fill="white"/>
</clipPath>
<clipPath id="clip1_1220_45012">
<rect width="17" height="20" fill="white" transform="translate(12 10)"/>
</clipPath>
</defs>
</svg>
